<svg xmlns="http://www.w3.org/2000/svg" viewBox="0 0 256 256" fill="none">
  <!-- Logo scaled to 50% (50% zoom out, centered) -->
  <circle cx="128" cy="128" r="106" stroke="#001F3F" stroke-width="8"/>
  
  <!-- Geometric web pattern scaled to 50% -->
  <g opacity="0.7">
    <!-- Center point -->
    <circle cx="128" cy="128" r="3" fill="#C9A961"/>
    
    <!-- Inner hexagon -->
    <circle cx="128" cy="96" r="2" fill="#C9A961"/>
    <circle cx="149" cy="106" r="2" fill="#C9A961"/>
    <circle cx="149" cy="150" r="2" fill="#C9A961"/>
    <circle cx="128" cy="160" r="2" fill="#C9A961"/>
    <circle cx="107" cy="150" r="2" fill="#C9A961"/>
    <circle cx="107" cy="106" r="2" fill="#C9A961"/>
    
    <!-- Connecting lines -->
    <line x1="128" y1="96" x2="149" y2="106" stroke="#C9A961" stroke-width="1" opacity="0.6"/>
    <line x1="149" y1="106" x2="149" y2="150" stroke="#C9A961" stroke-width="1" opacity="0.6"/>
    <line x1="149" y1="150" x2="128" y2="160" stroke="#C9A961" stroke-width="1" opacity="0.6"/>
    <line x1="128" y1="160" x2="107" y2="150" stroke="#C9A961" stroke-width="1" opacity="0.6"/>
    <line x1="107" y1="150" x2="107" y2="106" stroke="#C9A961" stroke-width="1" opacity="0.6"/>
    <line x1="107" y1="106" x2="128" y2="96" stroke="#C9A961" stroke-width="1" opacity="0.6"/>
    
    <!-- Center connections -->
    <line x1="128" y1="128" x2="128" y2="96" stroke="#C9A961" stroke-width="0.8" opacity="0.4"/>
    <line x1="128" y1="128" x2="149" y2="106" stroke="#C9A961" stroke-width="0.8" opacity="0.4"/>
    <line x1="128" y1="128" x2="149" y2="150" stroke="#C9A961" stroke-width="0.8" opacity="0.4"/>
    <line x1="128" y1="128" x2="128" y2="160" stroke="#C9A961" stroke-width="0.8" opacity="0.4"/>
    <line x1="128" y1="128" x2="107" y2="150" stroke="#C9A961" stroke-width="0.8" opacity="0.4"/>
    <line x1="128" y1="128" x2="107" y2="106" stroke="#C9A961" stroke-width="0.8" opacity="0.4"/>
  </g>
  
  <!-- W letter -->
  <text x="128" y="138" font-size="24" font-weight="bold" fill="#001F3F" text-anchor="middle" font-family="serif">W</text>
</svg>
